<svg width="188" height="50" fill="none" xmlns="http://www.w3.org/2000/svg"><path d="M24.1278 0.733158L39.8605 10.3757L39.8784 10.3866C39.9124 10.4074 39.9462 10.4281 39.9797 10.4497C40.2365 10.6155 41.2583 11.3176 41.6375 12.2203L19.5532 26.7907V36.5043L40.9532 22.5566L38.4881 36.4091C38.2728 37.6133 37.6222 38.6961 36.6604 39.4511L24.5743 48.9384C22.786 50.3421 20.2749 50.355 18.4724 48.9698L6.11043 39.4698C5.15364 38.7345 4.49759 37.6775 4.26138 36.4969L19.5532 26.7907L19.4288 16.4544L2.75675 27.4756L0.707606 15.5185C0.367264 13.5081 1.28535 11.4931 3.02503 10.4323L18.9396 0.727336C20.5333 -0.244535 22.5363 -0.242288 24.1278 0.733158Z" fill="white"/><path d="M62.9975 38.56C60.8375 38.56 58.8908 38.0667 57.1575 37.08C55.4508 36.0667 54.0908 34.5733 53.0775 32.6C52.0908 30.6 51.5975 28.0933 51.5975 25.08C51.5975 22.8667 51.8775 20.9067 52.4375 19.2C53.0241 17.4667 53.8641 16 54.9575 14.8C56.0775 13.5733 57.4508 12.64 59.0775 12C60.7041 11.36 62.5841 11.04 64.7175 11.04C66.3175 11.04 67.7708 11.2267 69.0775 11.6C70.3841 11.9733 71.5175 12.5067 72.4775 13.2C73.4375 13.8933 74.1841 14.7333 74.7175 15.72C75.2775 16.68 75.5841 17.7733 75.6375 19L70.1975 20.68C70.1441 19.56 69.8508 18.64 69.3175 17.92C68.8108 17.2 68.1308 16.6667 67.2775 16.32C66.4508 15.9467 65.5175 15.76 64.4775 15.76C63.0375 15.76 61.7975 16.0933 60.7575 16.76C59.7441 17.4 58.9708 18.4 58.4375 19.76C57.9041 21.0933 57.6375 22.7867 57.6375 24.84C57.6375 26.4133 57.7841 27.7733 58.0775 28.92C58.3975 30.04 58.8641 30.9733 59.4775 31.72C60.0908 32.4667 60.8241 33.0267 61.6775 33.4C62.5308 33.7467 63.5175 33.92 64.6375 33.92C65.8108 33.92 66.8241 33.7333 67.6775 33.36C68.5575 32.96 69.2508 32.36 69.7575 31.56C70.2908 30.7333 70.5841 29.6933 70.6375 28.44H65.6375V24.28H76.3175V29.12V38H72.3175L72.3975 31.24H71.6775C71.2508 32.84 70.6775 34.1867 69.9575 35.28C69.2375 36.3467 68.3041 37.16 67.1575 37.72C66.0375 38.28 64.6508 38.56 62.9975 38.56ZM88.2256 38.56C86.1189 38.56 84.2656 38.1467 82.6656 37.32C81.0656 36.4667 79.8122 35.2267 78.9056 33.6C77.9989 31.9467 77.5456 29.8933 77.5456 27.44C77.5456 24.9867 77.9989 22.9467 78.9056 21.32C79.8389 19.6933 81.1056 18.48 82.7056 17.68C84.3322 16.8533 86.1722 16.44 88.2256 16.44C90.3322 16.44 92.1856 16.8533 93.7856 17.68C95.4122 18.5067 96.6789 19.7467 97.5856 21.4C98.5189 23.0267 98.9856 25.0667 98.9856 27.52C98.9856 30 98.5056 32.0667 97.5456 33.72C96.6122 35.3467 95.3322 36.56 93.7056 37.36C92.1056 38.16 90.2789 38.56 88.2256 38.56ZM88.4256 34.28C89.4656 34.28 90.3322 34.04 91.0256 33.56C91.7456 33.08 92.2789 32.36 92.6256 31.4C92.9989 30.4133 93.1856 29.2267 93.1856 27.84C93.1856 26.3733 92.9856 25.1333 92.5856 24.12C92.2122 23.08 91.6522 22.2933 90.9056 21.76C90.1589 21.2 89.2122 20.92 88.0656 20.92C87.0789 20.92 86.2256 21.16 85.5056 21.64C84.7856 22.0933 84.2389 22.8133 83.8656 23.8C83.4922 24.76 83.3056 25.9467 83.3056 27.36C83.3056 29.6267 83.7589 31.3467 84.6656 32.52C85.5722 33.6933 86.8256 34.28 88.4256 34.28ZM103.826 38V11.6H109.586V38H103.826ZM96.0262 16.44V11.6H117.386V16.44H96.0262ZM117.577 38V27.84V17H122.337L122.377 24.16H123.137C123.351 22.3733 123.711 20.92 124.217 19.8C124.751 18.68 125.484 17.8533 126.417 17.32C127.351 16.7867 128.511 16.52 129.897 16.52C130.137 16.52 130.391 16.5333 130.657 16.56C130.951 16.56 131.284 16.6 131.657 16.68L131.417 22.8C131.017 22.6133 130.577 22.48 130.097 22.4C129.617 22.32 129.191 22.28 128.817 22.28C127.777 22.28 126.884 22.52 126.137 23C125.391 23.48 124.777 24.1733 124.297 25.08C123.844 25.96 123.537 27.04 123.377 28.32V38H117.577ZM139.68 38.56C137.227 38.56 135.374 37.7333 134.12 36.08C132.894 34.4 132.28 31.8533 132.28 28.44V17H138.04V27.72C138.04 29.7733 138.347 31.3067 138.96 32.32C139.574 33.3067 140.507 33.8 141.76 33.8C142.507 33.8 143.16 33.6133 143.72 33.24C144.28 32.8667 144.76 32.3467 145.16 31.68C145.56 31.0133 145.854 30.2267 146.04 29.32C146.254 28.4133 146.374 27.44 146.4 26.4V17H152.16V29.44V38H147.52L147.48 31.44H146.76C146.36 33.0933 145.854 34.4533 145.24 35.52C144.654 36.56 143.894 37.3333 142.96 37.84C142.054 38.32 140.96 38.56 139.68 38.56ZM163.443 38.56C162.03 38.56 160.75 38.4267 159.603 38.16C158.456 37.8933 157.47 37.5067 156.643 37C155.816 36.4933 155.15 35.8933 154.643 35.2C154.136 34.48 153.803 33.68 153.643 32.8L158.043 31C158.15 31.5867 158.443 32.1333 158.923 32.64C159.403 33.1467 160.043 33.56 160.843 33.88C161.67 34.1733 162.656 34.32 163.803 34.32C165.03 34.32 165.976 34.1467 166.643 33.8C167.31 33.4267 167.643 32.9067 167.643 32.24C167.643 31.7333 167.456 31.3333 167.083 31.04C166.71 30.7467 166.163 30.4933 165.443 30.28C164.723 30.0667 163.856 29.8667 162.843 29.68C161.856 29.44 160.843 29.1867 159.803 28.92C158.79 28.6533 157.843 28.28 156.963 27.8C156.11 27.32 155.403 26.6933 154.843 25.92C154.31 25.12 154.043 24.1067 154.043 22.88C154.043 21.6 154.39 20.48 155.083 19.52C155.776 18.56 156.79 17.8133 158.123 17.28C159.456 16.72 161.083 16.44 163.003 16.44C164.736 16.44 166.256 16.68 167.563 17.16C168.87 17.6133 169.936 18.28 170.763 19.16C171.616 20.0133 172.19 21.04 172.483 22.24L167.803 23.8C167.696 23.16 167.43 22.6 167.003 22.12C166.603 21.64 166.056 21.28 165.363 21.04C164.696 20.8 163.91 20.68 163.003 20.68C161.856 20.68 160.963 20.8667 160.323 21.24C159.71 21.6133 159.403 22.1067 159.403 22.72C159.403 23.2267 159.603 23.64 160.003 23.96C160.43 24.28 161.016 24.5467 161.763 24.76C162.51 24.9467 163.39 25.1467 164.403 25.36C165.47 25.5733 166.51 25.8267 167.523 26.12C168.536 26.3867 169.443 26.7467 170.243 27.2C171.07 27.6533 171.723 28.2533 172.203 29C172.683 29.7467 172.923 30.7067 172.923 31.88C172.923 33.2667 172.55 34.4667 171.803 35.48C171.056 36.4667 169.976 37.2267 168.563 37.76C167.15 38.2933 165.443 38.56 163.443 38.56ZM182.201 38.48C179.854 38.48 178.121 37.8667 177.001 36.64C175.908 35.3867 175.361 33.4 175.361 30.68V21.52H172.321L172.401 17H174.521C175.348 17 175.961 16.88 176.361 16.64C176.761 16.4 177.001 15.96 177.081 15.32L177.601 12.32H180.881V17H186.201V21.68H180.881V30.44C180.881 31.4 181.108 32.0933 181.561 32.52C182.014 32.9467 182.708 33.16 183.641 33.16C184.148 33.16 184.628 33.1067 185.081 33C185.561 32.8933 185.974 32.72 186.321 32.48V37.84C185.494 38.1067 184.734 38.28 184.041 38.36C183.348 38.44 182.734 38.48 182.201 38.48Z" fill="white"/></svg>